<svg width="393" height="288" viewBox="0 0 393 288" fill="none" xmlns="http://www.w3.org/2000/svg">
<path d="M3.2 256V251.776C4.18133 251.733 4.992 251.605 5.632 251.392C6.31467 251.179 6.82667 250.688 7.168 249.92C7.552 249.152 7.744 247.915 7.744 246.208V221.696C7.744 220.544 7.76533 219.435 7.808 218.368C7.89333 217.301 7.95733 216.491 8 215.936C7.31733 215.979 6.464 216.021 5.44 216.064C4.416 216.064 3.66933 216.085 3.2 216.128V211.2H35.2L35.584 223.616H31.36C31.36 221.269 30.9547 219.499 30.144 218.304C29.3333 217.109 28.3307 216.32 27.136 215.936C25.9413 215.509 24.768 215.317 23.616 215.36L21.312 215.424C20.416 215.424 19.648 215.552 19.008 215.808C18.368 216.021 17.8773 216.533 17.536 217.344C17.1947 218.112 17.024 219.328 17.024 220.992V232.128H23.616L23.36 226.624H28.288V242.176H24.064C24.064 240.384 23.7867 239.083 23.232 238.272C22.6773 237.461 21.9093 236.971 20.928 236.8C19.9893 236.587 18.944 236.501 17.792 236.544H17.024V245.504C17.024 246.656 17.0027 247.765 16.96 248.832C16.9173 249.899 16.8533 250.709 16.768 251.264C17.2373 251.221 17.856 251.2 18.624 251.2C19.392 251.157 20.1387 251.136 20.864 251.136C21.632 251.093 22.1653 251.072 22.464 251.072V256H3.2ZM38.249 251.84C39.4437 251.84 40.297 251.605 40.809 251.136C41.321 250.667 41.641 250.005 41.769 249.152C41.9397 248.256 42.025 247.253 42.025 246.144V235.392C42.025 234.624 42.0463 233.771 42.089 232.832C42.1317 231.851 42.1957 230.891 42.281 229.952C41.5983 229.995 40.7877 230.037 39.849 230.08C38.953 230.08 38.2703 230.101 37.801 230.144V225.28H40.361C42.025 225.28 43.5397 225.067 44.905 224.64C46.313 224.213 47.2303 223.787 47.657 223.36H50.793C50.8783 223.787 50.9423 224.597 50.985 225.792C51.0277 226.944 51.049 227.968 51.049 228.864C52.201 227.456 53.289 226.325 54.313 225.472C55.337 224.619 56.3397 224 57.321 223.616C58.345 223.189 59.369 222.976 60.393 222.976C61.8863 222.976 63.1877 223.403 64.297 224.256C65.4063 225.067 65.961 226.411 65.961 228.288C65.961 228.928 65.8117 229.611 65.513 230.336C65.2143 231.019 64.745 231.595 64.105 232.064C63.465 232.533 62.5903 232.768 61.481 232.768C60.6277 232.768 59.753 232.512 58.857 232C57.961 231.488 57.449 230.507 57.321 229.056C56.4677 229.056 55.6143 229.419 54.761 230.144C53.9077 230.827 53.1397 231.659 52.457 232.64C51.817 233.579 51.369 234.453 51.113 235.264V245.696C51.113 246.293 51.0917 247.147 51.049 248.256C51.0063 249.323 50.9423 250.347 50.857 251.328C51.5397 251.243 52.2863 251.2 53.097 251.2C53.9503 251.157 54.5903 251.136 55.017 251.136V256H38.249V251.84ZM83.667 257.024C80.5523 257.024 77.8003 256.341 75.411 254.976C73.0217 253.568 71.1657 251.605 69.843 249.088C68.5203 246.528 67.859 243.52 67.859 240.064C67.859 237.077 68.5203 234.283 69.843 231.68C71.1657 229.077 73.0217 226.987 75.411 225.408C77.843 223.787 80.659 222.976 83.859 222.976C85.651 222.976 87.4003 223.232 89.107 223.744C90.8137 224.213 92.3497 225.045 93.715 226.24C95.123 227.435 96.2323 229.056 97.043 231.104C97.8963 233.152 98.3017 235.712 98.259 238.784L77.267 239.168C77.267 241.472 77.5443 243.541 78.099 245.376C78.6963 247.211 79.6563 248.661 80.979 249.728C82.3017 250.795 84.0723 251.328 86.291 251.328C87.1443 251.328 88.1043 251.179 89.171 250.88C90.2803 250.581 91.3897 250.091 92.499 249.408C93.651 248.683 94.7177 247.723 95.699 246.528L98.579 249.216C97.043 251.392 95.4003 253.056 93.651 254.208C91.9017 255.317 90.1523 256.064 88.403 256.448C86.6963 256.832 85.1177 257.024 83.667 257.024ZM77.651 234.688H89.427C89.3843 232.896 89.1283 231.488 88.659 230.464C88.2323 229.397 87.635 228.629 86.867 228.16C86.099 227.691 85.203 227.456 84.179 227.456C82.3017 227.456 80.8297 228.139 79.763 229.504C78.6963 230.827 77.9923 232.555 77.651 234.688ZM102.937 251.84C104.131 251.84 104.985 251.605 105.497 251.136C106.009 250.667 106.329 250.005 106.457 249.152C106.627 248.256 106.713 247.253 106.713 246.144V235.52C106.713 234.752 106.734 233.877 106.777 232.896C106.819 231.872 106.883 230.891 106.969 229.952C106.286 229.995 105.475 230.037 104.536 230.08C103.641 230.08 102.958 230.101 102.489 230.144V225.28C104.451 225.28 106.115 225.173 107.481 224.96C108.846 224.747 109.913 224.491 110.681 224.192C111.491 223.893 112.046 223.616 112.345 223.36H115.801V245.696C115.801 246.293 115.779 247.147 115.737 248.256C115.694 249.323 115.63 250.347 115.545 251.328C116.227 251.243 116.974 251.2 117.785 251.2C118.638 251.157 119.278 251.136 119.705 251.136V256H102.937V251.84ZM110.937 218.304C109.486 218.304 108.291 217.792 107.353 216.768C106.414 215.744 105.945 214.507 105.945 213.056C105.945 211.605 106.435 210.368 107.417 209.344C108.398 208.32 109.55 207.808 110.873 207.808C112.238 207.808 113.369 208.32 114.265 209.344C115.203 210.368 115.673 211.605 115.673 213.056C115.673 214.507 115.246 215.744 114.393 216.768C113.539 217.792 112.387 218.304 110.937 218.304ZM137.634 273.344C133.965 273.344 131.063 272.939 128.93 272.128C126.797 271.36 125.282 270.336 124.386 269.056C123.49 267.776 123.042 266.411 123.042 264.96C123.042 264.064 123.234 263.168 123.618 262.272C124.002 261.376 124.621 260.501 125.474 259.648C126.37 258.837 127.586 258.155 129.122 257.6C127.373 257.131 126.135 256.384 125.41 255.36C124.727 254.293 124.386 253.163 124.386 251.968C124.386 250.859 124.834 249.621 125.73 248.256C126.626 246.848 128.247 245.781 130.594 245.056C128.802 244.331 127.33 243.2 126.178 241.664C125.026 240.128 124.407 238.272 124.322 236.096C124.237 233.536 124.877 231.275 126.242 229.312C127.607 227.307 129.399 225.749 131.618 224.64C133.837 223.531 136.162 222.976 138.594 222.976C139.703 222.976 140.983 223.125 142.434 223.424C143.885 223.723 145.143 224.235 146.21 224.96C146.679 223.637 147.277 222.4 148.002 221.248C148.77 220.053 149.687 219.093 150.754 218.368C151.821 217.6 153.015 217.216 154.338 217.216C155.789 217.216 156.877 217.6 157.602 218.368C158.37 219.093 158.754 220.075 158.754 221.312C158.754 221.824 158.626 222.4 158.37 223.04C158.157 223.637 157.751 224.149 157.154 224.576C156.599 225.003 155.81 225.216 154.786 225.216C154.146 225.216 153.506 224.981 152.866 224.512C152.226 224 151.842 223.403 151.714 222.72C151.159 222.891 150.605 223.445 150.05 224.384C149.495 225.323 149.175 226.155 149.09 226.88C150.327 227.947 151.266 229.184 151.906 230.592C152.546 232 152.866 233.515 152.866 235.136C152.866 237.611 152.162 239.808 150.754 241.728C149.389 243.605 147.597 245.099 145.378 246.208C143.202 247.275 140.855 247.808 138.338 247.808C137.783 247.808 137.165 247.787 136.482 247.744C135.799 247.659 135.138 247.616 134.498 247.616C133.559 247.616 132.77 247.787 132.13 248.128C131.49 248.469 131.17 248.939 131.17 249.536C131.17 250.347 131.789 250.901 133.026 251.2C134.263 251.499 136.375 251.733 139.362 251.904C142.647 252.075 145.506 252.501 147.938 253.184C150.413 253.824 152.333 254.848 153.698 256.256C155.063 257.664 155.746 259.605 155.746 262.08C155.746 263.915 155.213 265.515 154.146 266.88C153.079 268.288 151.65 269.461 149.858 270.4C148.109 271.381 146.167 272.107 144.034 272.576C141.901 273.088 139.767 273.344 137.634 273.344ZM139.49 268.928C142.519 268.928 144.802 268.373 146.338 267.264C147.917 266.155 148.706 265.003 148.706 263.808C148.706 262.912 148.365 262.165 147.682 261.568C146.999 261.013 145.975 260.565 144.61 260.224C143.287 259.883 141.581 259.669 139.49 259.584C138.551 259.499 137.463 259.435 136.226 259.392C134.989 259.349 133.901 259.243 132.962 259.072C132.322 259.584 131.831 260.224 131.49 260.992C131.149 261.76 130.957 262.507 130.914 263.232C130.829 264.939 131.554 266.304 133.09 267.328C134.669 268.395 136.802 268.928 139.49 268.928ZM138.594 243.52C139.746 243.52 140.706 243.157 141.474 242.432C142.285 241.707 142.882 240.789 143.266 239.68C143.693 238.571 143.906 237.44 143.906 236.288C143.906 234.795 143.714 233.365 143.33 232C142.946 230.592 142.349 229.461 141.538 228.608C140.77 227.712 139.767 227.264 138.53 227.264C136.823 227.264 135.501 228.032 134.562 229.568C133.623 231.104 133.154 232.853 133.154 234.816C133.154 236.309 133.367 237.739 133.794 239.104C134.221 240.427 134.839 241.493 135.65 242.304C136.461 243.115 137.442 243.52 138.594 243.52ZM178.196 251.84C179.391 251.84 180.244 251.605 180.756 251.136C181.311 250.667 181.652 250.005 181.78 249.152C181.951 248.256 182.036 247.253 182.036 246.144L181.972 237.056C181.972 234.283 181.545 232.235 180.692 230.912C179.881 229.547 178.58 228.864 176.788 228.864C175.721 228.864 174.655 229.099 173.588 229.568C172.564 230.037 171.689 230.592 170.964 231.232V245.696C170.964 246.293 170.943 247.147 170.9 248.256C170.857 249.323 170.793 250.347 170.708 251.328C171.433 251.243 172.201 251.2 173.012 251.2C173.823 251.157 174.441 251.136 174.868 251.136V256H158.1V251.84C159.295 251.84 160.148 251.605 160.66 251.136C161.215 250.667 161.556 250.005 161.684 249.152C161.812 248.256 161.876 247.253 161.876 246.144V219.84C161.876 219.072 161.897 218.197 161.94 217.216C161.983 216.192 162.047 215.211 162.132 214.272C161.449 214.315 160.639 214.357 159.7 214.4C158.804 214.4 158.121 214.421 157.652 214.464V209.6C159.657 209.6 161.321 209.493 162.644 209.28C164.009 209.067 165.076 208.811 165.844 208.512C166.655 208.213 167.209 207.936 167.508 207.68H170.964V226.56C171.817 225.877 172.799 225.28 173.908 224.768C175.017 224.213 176.148 223.787 177.3 223.488C178.452 223.147 179.455 222.976 180.308 222.976C184.233 222.976 187.007 224.107 188.628 226.368C190.249 228.587 191.081 232.171 191.124 237.12V245.696C191.124 246.293 191.103 247.147 191.06 248.256C191.017 249.323 190.953 250.347 190.868 251.328C191.551 251.243 192.297 251.2 193.108 251.2C193.919 251.157 194.559 251.136 195.028 251.136V256H178.196V251.84ZM211.171 257.024C209.891 257.024 208.654 256.875 207.459 256.576C206.307 256.277 205.24 255.723 204.259 254.912C203.32 254.059 202.574 252.821 202.019 251.2C201.464 249.579 201.187 247.424 201.187 244.736L201.315 229.312H196.963V224C198.286 223.957 199.566 223.509 200.803 222.656C202.04 221.803 203.086 220.693 203.939 219.328C204.835 217.963 205.432 216.533 205.731 215.04H210.467L210.403 224H218.531V228.928L210.403 229.12L210.339 244.864C210.339 245.845 210.424 246.827 210.595 247.808C210.808 248.747 211.192 249.536 211.747 250.176C212.302 250.773 213.112 251.072 214.179 251.072C214.776 251.072 215.587 250.859 216.611 250.432C217.678 250.005 218.808 248.939 220.003 247.232L223.075 250.112C221.923 251.819 220.728 253.141 219.491 254.08C218.254 255.019 217.059 255.701 215.907 256.128C214.798 256.555 213.816 256.811 212.963 256.896C212.11 256.981 211.512 257.024 211.171 257.024ZM248.341 257.024C246.677 257.024 245.141 256.725 243.733 256.128C242.368 255.531 241.258 254.72 240.405 253.696C239.594 252.672 239.189 251.499 239.189 250.176C239.189 248.811 239.552 247.595 240.277 246.528C241.045 245.461 242.154 244.907 243.605 244.864C245.226 244.779 246.378 245.184 247.061 246.08C247.786 246.933 248.17 247.915 248.213 249.024C248.256 249.365 248.213 249.749 248.085 250.176C248 250.603 247.85 251.008 247.637 251.392C247.85 251.819 248.17 252.096 248.597 252.224C249.066 252.352 249.408 252.416 249.621 252.416C250.517 252.416 251.2 252.032 251.669 251.264C252.181 250.453 252.437 249.152 252.437 247.36V221.696C252.437 220.544 252.458 219.435 252.501 218.368C252.544 217.301 252.608 216.491 252.693 215.936C252.01 215.979 251.157 216.021 250.133 216.064C249.109 216.064 248.362 216.085 247.893 216.128V211.2H266.261V215.424C265.322 215.467 264.512 215.595 263.829 215.808C263.146 216.021 262.613 216.512 262.229 217.28C261.888 218.005 261.717 219.243 261.717 220.992V239.744C261.717 245.888 260.565 250.304 258.261 252.992C255.957 255.68 252.65 257.024 248.341 257.024ZM284.492 257.024C281.42 257.024 278.646 256.363 276.172 255.04C273.697 253.717 271.734 251.84 270.284 249.408C268.876 246.933 268.172 244.032 268.172 240.704C268.172 237.163 268.897 234.069 270.348 231.424C271.841 228.736 273.804 226.667 276.236 225.216C278.71 223.723 281.398 222.976 284.3 222.976C287.372 222.976 290.124 223.637 292.556 224.96C294.988 226.283 296.908 228.181 298.316 230.656C299.724 233.088 300.428 236.011 300.428 239.424C300.428 243.008 299.745 246.123 298.38 248.768C297.014 251.413 295.137 253.461 292.748 254.912C290.358 256.32 287.606 257.024 284.492 257.024ZM284.748 252.48C286.454 252.437 287.734 251.84 288.588 250.688C289.484 249.536 290.102 248.085 290.444 246.336C290.785 244.587 290.956 242.816 290.956 241.024C290.956 239.445 290.828 237.845 290.572 236.224C290.358 234.603 289.996 233.131 289.484 231.808C288.972 230.485 288.268 229.419 287.372 228.608C286.518 227.797 285.452 227.413 284.172 227.456C282.508 227.499 281.185 228.096 280.204 229.248C279.265 230.4 278.582 231.851 278.156 233.6C277.772 235.307 277.58 237.099 277.58 238.976C277.58 241.152 277.814 243.285 278.284 245.376C278.753 247.467 279.5 249.195 280.524 250.56C281.59 251.883 282.998 252.523 284.748 252.48ZM305.062 251.84C306.256 251.84 307.11 251.605 307.622 251.136C308.134 250.667 308.454 250.005 308.582 249.152C308.752 248.256 308.838 247.253 308.838 246.144V235.52C308.838 234.752 308.859 233.877 308.902 232.896C308.944 231.872 309.008 230.891 309.094 229.952C308.411 229.995 307.6 230.037 306.661 230.08C305.766 230.08 305.083 230.101 304.614 230.144V225.28C306.576 225.28 308.24 225.173 309.606 224.96C310.971 224.747 312.038 224.491 312.806 224.192C313.616 223.893 314.171 223.616 314.47 223.36H317.926V245.696C317.926 246.293 317.904 247.147 317.862 248.256C317.819 249.323 317.755 250.347 317.67 251.328C318.352 251.243 319.099 251.2 319.91 251.2C320.763 251.157 321.403 251.136 321.83 251.136V256H305.062V251.84ZM313.062 218.304C311.611 218.304 310.416 217.792 309.478 216.768C308.539 215.744 308.07 214.507 308.07 213.056C308.07 211.605 308.56 210.368 309.542 209.344C310.523 208.32 311.675 207.808 312.998 207.808C314.363 207.808 315.494 208.32 316.39 209.344C317.328 210.368 317.798 211.605 317.798 213.056C317.798 214.507 317.371 215.744 316.518 216.768C315.664 217.792 314.512 218.304 313.062 218.304ZM325.999 256V251.84C327.194 251.84 328.047 251.605 328.559 251.136C329.071 250.667 329.391 250.005 329.519 249.152C329.69 248.256 329.775 247.253 329.775 246.144V235.392C329.775 234.624 329.796 233.771 329.839 232.832C329.882 231.851 329.946 230.891 330.031 229.952C329.348 229.995 328.538 230.037 327.599 230.08C326.703 230.08 326.02 230.101 325.551 230.144V225.28C327.514 225.28 329.178 225.173 330.543 224.96C331.908 224.747 332.975 224.491 333.743 224.192C334.554 223.893 335.108 223.616 335.407 223.36H338.543C338.628 223.915 338.671 224.32 338.671 224.576C338.671 224.832 338.671 225.088 338.671 225.344C338.714 225.557 338.799 225.963 338.927 226.56C339.78 225.877 340.762 225.28 341.871 224.768C342.98 224.213 344.09 223.787 345.199 223.488C346.308 223.147 347.29 222.976 348.143 222.976C352.068 222.976 354.842 224.107 356.463 226.368C358.127 228.587 358.959 232.171 358.959 237.12V245.696C358.959 246.293 358.938 247.147 358.895 248.256C358.852 249.323 358.788 250.347 358.703 251.328C359.428 251.243 360.196 251.2 361.007 251.2C361.818 251.157 362.436 251.136 362.863 251.136V256H346.095V251.84C347.29 251.84 348.143 251.605 348.655 251.136C349.21 250.667 349.551 250.005 349.679 249.152C349.85 248.256 349.935 247.253 349.935 246.144L349.871 237.056C349.871 234.283 349.466 232.235 348.655 230.912C347.887 229.547 346.564 228.864 344.687 228.864C343.62 228.864 342.554 229.099 341.487 229.568C340.463 230.037 339.588 230.592 338.863 231.232C338.863 231.829 338.863 232.448 338.863 233.088C338.863 233.685 338.863 234.283 338.863 234.88V245.696C338.863 246.293 338.842 247.147 338.799 248.256C338.756 249.323 338.692 250.347 338.607 251.328C339.29 251.243 340.036 251.2 340.847 251.2C341.7 251.157 342.34 251.136 342.767 251.136V256H325.999ZM378.984 257.024C377.704 257.024 376.466 256.875 375.272 256.576C374.12 256.277 373.053 255.723 372.072 254.912C371.133 254.059 370.386 252.821 369.832 251.2C369.277 249.579 369 247.424 369 244.736L369.128 229.312H364.776V224C366.098 223.957 367.378 223.509 368.616 222.656C369.853 221.803 370.898 220.693 371.752 219.328C372.648 217.963 373.245 216.533 373.544 215.04H378.28L378.216 224H386.344V228.928L378.216 229.12L378.152 244.864C378.152 245.845 378.237 246.827 378.408 247.808C378.621 248.747 379.005 249.536 379.56 250.176C380.114 250.773 380.925 251.072 381.992 251.072C382.589 251.072 383.4 250.859 384.424 250.432C385.49 250.005 386.621 248.939 387.816 247.232L390.888 250.112C389.736 251.819 388.541 253.141 387.304 254.08C386.066 255.019 384.872 255.701 383.72 256.128C382.61 256.555 381.629 256.811 380.776 256.896C379.922 256.981 379.325 257.024 378.984 257.024Z" fill="#0866FF"/>
<path fill-rule="evenodd" clip-rule="evenodd" d="M145.435 1.95497L143.219 3.90914L142.998 35.6616L142.776 67.4132L139.867 67.9503C135.028 68.8447 135 68.925 135 81.8647C135 94.8181 135.247 95.576 139.462 95.576H142.045V103.203V110.83H145.959H149.873V106.013C149.873 102.48 150.158 101.196 150.941 101.196C151.618 101.196 152.191 102.559 152.506 104.921C153.329 111.075 153.295 111.15 149.05 112.696C142.934 114.925 142.387 116.381 141.757 132.134C141.208 145.867 141.393 147.124 144.463 150.593C145.642 151.925 145.943 153.815 146.127 161.029L146.35 169.837L149.482 170.94C153.692 172.423 164.452 172.547 167.682 171.149L170.226 170.047V161.715V153.382L174.727 153.531L179.228 153.679L175.118 153.974L171.008 154.269V159.832C171.008 166.155 171.477 166.567 178.116 166.08L181.576 165.827L181.804 160.118L182.032 154.411L189.045 153.867C192.902 153.568 199.228 153.57 203.103 153.87L210.148 154.415V159.834C210.148 165.844 210.476 166.236 215.496 166.217C221.556 166.194 221.89 165.855 221.89 159.751V154.265L217.389 153.975L212.888 153.686L217.78 153.534L222.673 153.382V161.683C222.673 169.8 222.717 170.005 224.666 170.916C227.55 172.264 237.098 172.06 242.386 170.538L246.939 169.227V160.449C246.939 152.321 247.085 151.474 248.896 149.038C250.814 146.459 250.853 146.119 250.853 132.151V117.896L248.187 115.161C246.72 113.657 244.423 112.201 243.082 111.926C241.741 111.651 240.469 111.136 240.256 110.781C239.429 109.409 240.888 101.196 241.959 101.196C242.729 101.196 243.025 102.42 243.025 105.612V110.028H246.939H250.853V102.802C250.853 95.8177 250.913 95.576 252.636 95.576C253.616 95.576 255.202 95.0132 256.158 94.326C257.82 93.1329 257.898 92.554 257.898 81.4633C257.898 68.6303 258.136 69.2076 252.323 67.9431C250.792 67.6099 250.145 66.856 249.779 64.9773C249.508 63.5916 249.288 49.5166 249.288 33.7002V4.94243L247.399 2.68959L245.51 0.436758L196.581 0.218379L147.652 0L145.435 1.95497ZM238.006 63.0063C239.02 63.2672 240.227 64.205 240.689 65.0897C241.947 67.5007 242.141 98.7883 240.898 98.7875C240.177 98.7875 239.986 95.177 240.115 83.9739C240.268 70.6873 240.141 69.0117 238.888 67.7159C237.585 66.3687 234.79 66.2563 197.336 66.0499C149.207 65.7842 153.007 64.9171 153 76.1652C152.992 89.5 152.1 98.7875 150.827 98.7875C149.876 98.7875 149.786 98.105 150.32 94.9739C150.678 92.8768 150.988 85.5081 151.009 78.6003C151.043 67.5288 151.219 65.8444 152.499 64.3944C153.297 63.4888 154.706 62.6378 155.63 62.5029C158.715 62.0517 236.137 62.5246 238.006 63.0063ZM195.275 92.6424V108.175L183.729 108.763C177.378 109.087 170.338 109.619 168.082 109.946L163.981 110.541L163.615 108.076C163.414 106.721 162.892 100.239 162.455 93.6732C161.66 81.7339 161.935 79.3277 164.276 77.7244C164.75 77.4 171.918 77.1294 180.206 77.1222L195.275 77.1102V92.6424ZM230.47 78.8676C232.339 80.9254 232.366 81.6568 231.157 97.8794L230.238 110.219L226.259 109.73C224.071 109.461 216.909 109 210.344 108.707L198.406 108.172V92.6416V77.1102H213.64C228.303 77.1102 228.933 77.176 230.47 78.8676ZM158.544 119.6C162.73 123.894 160.827 130.668 155.014 132.165C152.146 132.903 148.451 131.106 147.027 128.283C143.146 120.584 152.573 113.476 158.544 119.6ZM243.068 118.08C244.861 119.064 246.939 122.925 246.939 125.271C246.939 129.915 241.113 133.553 236.685 131.672C231.761 129.58 230.558 124.033 234.093 119.724C236.257 117.085 240.006 116.399 243.068 118.08ZM219.15 123.676V125.683L197.327 125.897C182.899 126.038 175.168 125.824 174.511 125.265C173.965 124.8 173.7 123.705 173.924 122.832C174.316 121.289 174.979 121.249 196.74 121.456L219.15 121.669V123.676ZM224.21 132.874C224.73 133.517 224.929 134.42 224.651 134.881C223.949 136.045 169.73 136.042 169.028 134.878C168.749 134.415 168.718 133.512 168.958 132.871C169.611 131.124 222.796 131.127 224.21 132.874ZM226.638 141.367C228.469 142.373 228.613 144.197 226.914 144.866C226.233 145.134 212.7 145.354 196.841 145.354C180.981 145.354 167.448 145.134 166.767 144.866C165.295 144.287 165.114 141.644 166.507 141.068C168.496 140.245 225.106 140.527 226.638 141.367Z" fill="#0866FF"/>
</svg>
